<?xml version="1.0" encoding="UTF-8"?>
<svg width="384px" height="240px" viewBox="0 0 384 240" version="1.1" xmlns="http://www.w3.org/2000/svg" xmlns:xlink="http://www.w3.org/1999/xlink">
    <!-- Generator: Sketch 42 (36781) - http://www.bohemiancoding.com/sketch -->
    <title>logos/pay/fullcolor/negative/logo_pay-primary-fullcolor-negative</title>
    <desc>Created with Sketch.</desc>
    <defs></defs>
    <g id="Logos" stroke="none" stroke-width="1" fill="none" fill-rule="evenodd">
        <g id="logos/pay/fullcolor/negative/logo_pay-primary-fullcolor-negative">
            <path d="M96.26,15.916 C86.839,15.916 77.953,18.966 69.598,25.066 L69.598,80.58 C78.083,86.951 86.839,90.13 95.865,90.13 C114.166,90.13 123.322,77.795 123.322,53.123 C123.322,28.322 114.301,15.916 96.26,15.916 Z M68.202,13.331 C73.243,8.95 78.619,5.635 84.324,3.38 C90.024,1.125 95.865,0 101.83,0 C108.201,0 113.971,1.189 119.141,3.58 C124.317,5.965 128.692,9.415 132.272,13.926 C135.858,18.436 138.607,23.906 140.533,30.342 C142.452,36.778 143.418,44.038 143.418,52.128 C143.418,60.354 142.388,67.785 140.333,74.415 C138.278,81.051 135.392,86.686 131.677,91.326 C127.962,95.971 123.451,99.581 118.146,102.172 C112.841,104.757 106.935,106.052 100.44,106.052 C88.499,106.052 78.218,102.136 69.598,94.311 L69.598,140.869 C69.598,143.524 68.273,144.849 65.618,144.849 L53.877,144.849 C51.227,144.849 49.902,143.524 49.902,140.869 L49.902,6.96 C49.902,4.31 51.227,2.979 53.877,2.979 L62.632,2.979 C65.288,2.979 66.813,4.31 67.213,6.96 L68.202,13.331 L68.202,13.331 Z" id="Fill-1" fill="#FFFFFF"></path>
            <path d="M193.162,91.526 C197.537,91.526 202.112,90.666 206.887,88.941 C211.662,87.216 216.243,84.696 220.618,81.38 L220.618,61.084 C217.303,60.289 213.817,59.659 210.173,59.194 C206.522,58.729 202.977,58.493 199.527,58.493 C184.535,58.493 177.045,64.264 177.045,75.804 C177.045,80.851 178.435,84.731 181.22,87.445 C184.005,90.166 187.986,91.526 193.162,91.526 Z M169.88,20.291 C169.485,20.426 168.985,20.591 168.39,20.791 C167.789,20.991 167.224,21.091 166.694,21.091 C164.969,21.091 164.109,19.896 164.109,17.505 L164.109,12.135 C164.109,10.281 164.374,8.985 164.904,8.255 C165.434,7.525 166.5,6.83 168.09,6.165 C172.335,4.31 177.57,2.815 183.811,1.69 C190.041,0.565 196.276,0 202.512,0 C215.113,0 224.398,2.585 230.369,7.755 C236.34,12.93 239.325,20.956 239.325,31.831 L239.325,99.881 C239.325,102.537 237.994,103.862 235.344,103.862 L226.789,103.862 C224.263,103.862 222.808,102.602 222.408,100.081 L221.413,93.516 C216.638,97.626 211.368,100.812 205.597,103.067 C199.827,105.322 194.086,106.447 188.386,106.447 C178.836,106.447 171.275,103.761 165.705,98.391 C160.129,93.016 157.344,85.826 157.344,76.799 C157.344,67.119 160.794,59.388 167.689,53.624 C174.59,47.853 183.876,44.968 195.546,44.968 C202.977,44.968 211.333,46.093 220.618,48.348 L220.618,35.217 C220.618,28.051 219.028,23.011 215.843,20.096 C212.657,17.176 207.087,15.716 199.132,15.716 C189.841,15.716 180.096,17.241 169.88,20.291 L169.88,20.291 Z" id="Fill-2" fill="#FFFFFF"></path>
            <path d="M303.983,121.567 C300.403,130.724 296.258,137.289 291.547,141.269 C286.843,145.25 280.707,147.24 273.147,147.24 C268.895,147.24 265.115,146.769 261.806,145.844 C260.34,145.45 259.28,144.814 258.62,143.954 C257.955,143.089 257.625,141.734 257.625,139.874 L257.625,134.704 C257.625,132.184 258.62,130.924 260.611,130.924 C261.27,130.924 262.265,131.053 263.596,131.318 C264.921,131.583 266.711,131.719 268.966,131.719 C274.006,131.719 277.922,130.523 280.707,128.139 C283.492,125.748 286.012,121.373 288.268,115.002 L292.048,104.857 L253.645,10.145 C252.715,7.89 252.255,6.3 252.255,5.37 C252.255,3.78 253.18,2.979 255.041,2.979 L266.976,2.979 C269.096,2.979 270.556,3.315 271.357,3.975 C272.152,4.64 272.947,6.1 273.741,8.355 L301.598,85.555 L328.46,8.355 C329.255,6.1 330.05,4.64 330.845,3.975 C331.646,3.315 333.1,2.979 335.226,2.979 L346.366,2.979 C348.221,2.979 349.151,3.78 349.151,5.37 C349.151,6.3 348.686,7.89 347.762,10.145 L303.983,121.567" id="Fill-3" fill="#FFFFFF"></path>
            <path d="M347.393,192.436 C305.315,223.488 244.314,240 191.784,240 C118.165,240 51.869,212.787 1.702,167.488 C-2.238,163.93 1.275,159.073 6.011,161.827 C60.137,193.323 127.073,212.292 196.205,212.292 C242.841,212.292 294.105,202.613 341.277,182.605 C348.389,179.588 354.354,187.291 347.393,192.436" id="Fill-5" fill="#FF9900"></path>
            <path d="M364.902,172.445 C359.519,165.556 329.329,169.18 315.763,170.806 C311.654,171.298 311.017,167.707 314.72,165.108 C338.808,148.191 378.272,153.074 382.859,158.74 C387.48,164.451 381.645,204.02 359.075,222.903 C355.602,225.805 352.3,224.256 353.839,220.422 C358.919,207.738 370.289,179.34 364.902,172.445" id="Fill-6" fill="#FF9900"></path>
        </g>
    </g>
</svg>